{
    "asset" : {
        "generator" : "Khronos glTF Blender I/O v1.8.19",
        "version" : "2.0"
    },
    "scene" : 0,
    "scenes" : [
        {
            "name" : "Scene",
            "nodes" : [
                1
            ]
        }
    ],
    "nodes" : [
        {
            "mesh" : 0,
            "name" : "ButtonPanel_01_collider"
        },
        {
            "children" : [
                0
            ],
            "mesh" : 1,
            "name" : "ButtonPanel_01"
        }
    ],
    "materials" : [
        {
            "doubleSided" : true,
            "name" : "SciFiPack_MAT",
            "pbrMetallicRoughness" : {
                "baseColorTexture" : {
                    "index" : 0
                },
                "metallicFactor" : 0
            }
        }
    ],
    "meshes" : [
        {
            "name" : "Cylinder.100",
            "primitives" : [
                {
                    "attributes" : {
                        "POSITION" : 0,
                        "NORMAL" : 1,
                        "TEXCOORD_0" : 2
                    },
                    "indices" : 3
                }
            ]
        },
        {
            "name" : "Cylinder.053",
            "primitives" : [
                {
                    "attributes" : {
                        "POSITION" : 4,
                        "NORMAL" : 5,
                        "TEXCOORD_0" : 6
                    },
                    "indices" : 7,
                    "material" : 0
                }
            ]
        }
    ],
    "textures" : [
        {
            "sampler" : 0,
            "source" : 0
        }
    ],
    "images" : [
        {
            "mimeType" : "image/png",
            "name" : "SciFi-Pallette",
            "uri" : "SciFi-Pallette.png"
        }
    ],
    "accessors" : [
        {
            "bufferView" : 0,
            "componentType" : 5126,
            "count" : 67,
            "max" : [
                0.14782944321632385,
                1.1354341506958008,
                0.14782944321632385
            ],
            "min" : [
                -0.14782944321632385,
                0.0006824622978456318,
                -0.14782944321632385
            ],
            "type" : "VEC3"
        },
        {
            "bufferView" : 1,
            "componentType" : 5126,
            "count" : 67,
            "type" : "VEC3"
        },
        {
            "bufferView" : 2,
            "componentType" : 5126,
            "count" : 67,
            "type" : "VEC2"
        },
        {
            "bufferView" : 3,
            "componentType" : 5123,
            "count" : 84,
            "type" : "SCALAR"
        },
        {
            "bufferView" : 4,
            "componentType" : 5126,
            "count" : 422,
            "max" : [
                0.16438955068588257,
                1.143587589263916,
                0.16398485004901886
            ],
            "min" : [
                -0.16438955068588257,
                0.0003399129200261086,
                -0.16397219896316528
            ],
            "type" : "VEC3"
        },
        {
            "bufferView" : 5,
            "componentType" : 5126,
            "count" : 422,
            "type" : "VEC3"
        },
        {
            "bufferView" : 6,
            "componentType" : 5126,
            "count" : 422,
            "type" : "VEC2"
        },
        {
            "bufferView" : 7,
            "componentType" : 5123,
            "count" : 660,
            "type" : "SCALAR"
        }
    ],
    "bufferViews" : [
        {
            "buffer" : 0,
            "byteLength" : 804,
            "byteOffset" : 0
        },
        {
            "buffer" : 0,
            "byteLength" : 804,
            "byteOffset" : 804
        },
        {
            "buffer" : 0,
            "byteLength" : 536,
            "byteOffset" : 1608
        },
        {
            "buffer" : 0,
            "byteLength" : 168,
            "byteOffset" : 2144
        },
        {
            "buffer" : 0,
            "byteLength" : 5064,
            "byteOffset" : 2312
        },
        {
            "buffer" : 0,
            "byteLength" : 5064,
            "byteOffset" : 7376
        },
        {
            "buffer" : 0,
            "byteLength" : 3376,
            "byteOffset" : 12440
        },
        {
            "buffer" : 0,
            "byteLength" : 1320,
            "byteOffset" : 15816
        }
    ],
    "samplers" : [
        {
            "magFilter" : 9729,
            "minFilter" : 9987
        }
    ],
    "buffers" : [
        {
            "byteLength" : 17136,
            "uri" : "ButtonPanel_01.bin"
        }
    ]
}
